<svg width="96" height="96" viewBox="0 0 96 96" fill="none" xmlns="http://www.w3.org/2000/svg">
  <defs>
    <linearGradient id="shell" x1="19" y1="14" x2="77" y2="82" gradientUnits="userSpaceOnUse">
      <stop stop-color="#2D333B"/>
      <stop offset="1" stop-color="#161B22"/>
    </linearGradient>
    <linearGradient id="metal" x1="28" y1="24" x2="65" y2="68" gradientUnits="userSpaceOnUse">
      <stop stop-color="#E6EDF3"/>
      <stop offset="0.52" stop-color="#AAB6C2"/>
      <stop offset="1" stop-color="#6E7681"/>
    </linearGradient>
    <linearGradient id="visor" x1="33" y1="36" x2="63" y2="49" gradientUnits="userSpaceOnUse">
      <stop stop-color="#0D1117"/>
      <stop offset="1" stop-color="#30363D"/>
    </linearGradient>
    <filter id="glow" x="0" y="0" width="200%" height="200%">
      <feOffset dx="0" dy="0"/>
      <feGaussianBlur stdDeviation="1.6" result="blur"/>
      <feBlend in="SourceGraphic" in2="blur" mode="screen"/>
    </filter>
  </defs>

  <path d="M35 25L31 18" stroke="#7D8590" stroke-width="3.5" stroke-linecap="round"/>
  <path d="M61 25L65 18" stroke="#7D8590" stroke-width="3.5" stroke-linecap="round"/>
  <circle cx="31" cy="18" r="2.3" fill="#9DA7B3"/>
  <circle cx="65" cy="18" r="2.3" fill="#9DA7B3"/>

  <path d="M27 34C27 27.925 31.925 23 38 23H58C64.075 23 69 27.925 69 34V57C69 64.18 63.18 70 56 70H40C32.82 70 27 64.18 27 57V34Z" fill="url(#metal)"/>
  <path d="M27 34C27 27.925 31.925 23 38 23H58C64.075 23 69 27.925 69 34V57C69 64.18 63.18 70 56 70H40C32.82 70 27 64.18 27 57V34Z" stroke="#D0D7DE" stroke-opacity="0.35" stroke-width="1.2"/>

  <rect x="32" y="34" width="32" height="16" rx="7" fill="url(#visor)"/>
  <path d="M37 42H59" stroke="#7EE787" stroke-width="1.6" stroke-linecap="round" stroke-opacity="0.12"/>
  <circle cx="40" cy="42" r="3.2" fill="#E6EDF3"/>
  <circle cx="56" cy="42" r="3.2" fill="#E6EDF3"/>
  <circle cx="40" cy="42" r="1.8" fill="#8B949E" filter="url(#glow)"/>
  <circle cx="56" cy="42" r="1.8" fill="#8B949E" filter="url(#glow)"/>

  <path d="M36 57H60" stroke="#30363D" stroke-width="2.4" stroke-linecap="round"/>
  <path d="M39 62H57" stroke="#30363D" stroke-width="2.4" stroke-linecap="round" opacity="0.78"/>

  <rect x="34" y="70" width="28" height="8" rx="4" fill="#5B6570"/>
  <rect x="29" y="68" width="6.5" height="15" rx="3.25" fill="#9DA7B3"/>
  <rect x="60.5" y="68" width="6.5" height="15" rx="3.25" fill="#9DA7B3"/>
</svg>